<mxfile host="app.diagrams.net" modified="2021-02-04T15:50:50.433Z" agent="5.0 (Windows NT 10.0; Win64; x64) AppleWebKit/537.36 (KHTML, like Gecko) Chrome/88.0.4324.104 Safari/537.36" etag="qyXFgeCPbmSobOrX6h07" version="14.2.9" type="github">
  <diagram id="C5RBs43oDa-KdzZeNtuy" name="Page-1">
    <mxGraphModel dx="780" dy="1112" grid="1" gridSize="10" guides="1" tooltips="1" connect="1" arrows="1" fold="1" page="1" pageScale="1" pageWidth="827" pageHeight="1169" math="0" shadow="0">
      <root>
        <mxCell id="WIyWlLk6GJQsqaUBKTNV-0" />
        <mxCell id="WIyWlLk6GJQsqaUBKTNV-1" parent="WIyWlLk6GJQsqaUBKTNV-0" />
        <mxCell id="OTHg70xA2JbWDokIxybt-4" value="" style="edgeStyle=orthogonalEdgeStyle;rounded=0;orthogonalLoop=1;jettySize=auto;html=1;" edge="1" parent="WIyWlLk6GJQsqaUBKTNV-1" source="OTHg70xA2JbWDokIxybt-1" target="OTHg70xA2JbWDokIxybt-3">
          <mxGeometry relative="1" as="geometry" />
        </mxCell>
        <mxCell id="OTHg70xA2JbWDokIxybt-8" value="" style="edgeStyle=orthogonalEdgeStyle;rounded=0;orthogonalLoop=1;jettySize=auto;html=1;" edge="1" parent="WIyWlLk6GJQsqaUBKTNV-1" source="OTHg70xA2JbWDokIxybt-1" target="OTHg70xA2JbWDokIxybt-7">
          <mxGeometry relative="1" as="geometry" />
        </mxCell>
        <mxCell id="OTHg70xA2JbWDokIxybt-1" value="Ask for number of players" style="shape=parallelogram;perimeter=parallelogramPerimeter;whiteSpace=wrap;html=1;fixedSize=1;rounded=1;strokeColor=#82b366;fillColor=#d5e8d4;" vertex="1" parent="WIyWlLk6GJQsqaUBKTNV-1">
          <mxGeometry x="354" y="200" width="120" height="60" as="geometry" />
        </mxCell>
        <mxCell id="OTHg70xA2JbWDokIxybt-6" value="" style="edgeStyle=orthogonalEdgeStyle;rounded=0;orthogonalLoop=1;jettySize=auto;html=1;" edge="1" parent="WIyWlLk6GJQsqaUBKTNV-1" source="OTHg70xA2JbWDokIxybt-3" target="OTHg70xA2JbWDokIxybt-5">
          <mxGeometry relative="1" as="geometry" />
        </mxCell>
        <mxCell id="OTHg70xA2JbWDokIxybt-3" value="Ask for each&lt;br&gt;players name" style="shape=parallelogram;perimeter=parallelogramPerimeter;whiteSpace=wrap;html=1;fixedSize=1;rounded=1;strokeColor=#82b366;fillColor=#d5e8d4;" vertex="1" parent="WIyWlLk6GJQsqaUBKTNV-1">
          <mxGeometry x="354" y="340" width="120" height="60" as="geometry" />
        </mxCell>
        <mxCell id="OTHg70xA2JbWDokIxybt-10" value="" style="edgeStyle=orthogonalEdgeStyle;rounded=0;orthogonalLoop=1;jettySize=auto;html=1;" edge="1" parent="WIyWlLk6GJQsqaUBKTNV-1" source="OTHg70xA2JbWDokIxybt-5" target="OTHg70xA2JbWDokIxybt-9">
          <mxGeometry relative="1" as="geometry" />
        </mxCell>
        <mxCell id="OTHg70xA2JbWDokIxybt-5" value="Start game" style="whiteSpace=wrap;html=1;rounded=1;strokeColor=#82b366;fillColor=#d5e8d4;" vertex="1" parent="WIyWlLk6GJQsqaUBKTNV-1">
          <mxGeometry x="354" y="480" width="120" height="60" as="geometry" />
        </mxCell>
        <mxCell id="OTHg70xA2JbWDokIxybt-7" value="Start" style="ellipse;whiteSpace=wrap;html=1;rounded=1;strokeColor=#b85450;fillColor=#f8cecc;" vertex="1" parent="WIyWlLk6GJQsqaUBKTNV-1">
          <mxGeometry x="354" y="50" width="120" height="80" as="geometry" />
        </mxCell>
        <mxCell id="OTHg70xA2JbWDokIxybt-12" value="" style="edgeStyle=orthogonalEdgeStyle;rounded=0;orthogonalLoop=1;jettySize=auto;html=1;" edge="1" parent="WIyWlLk6GJQsqaUBKTNV-1" source="OTHg70xA2JbWDokIxybt-9" target="OTHg70xA2JbWDokIxybt-11">
          <mxGeometry relative="1" as="geometry" />
        </mxCell>
        <mxCell id="OTHg70xA2JbWDokIxybt-9" value="Roll dice" style="whiteSpace=wrap;html=1;rounded=1;strokeColor=#82b366;fillColor=#d5e8d4;" vertex="1" parent="WIyWlLk6GJQsqaUBKTNV-1">
          <mxGeometry x="554" y="480" width="120" height="60" as="geometry" />
        </mxCell>
        <mxCell id="OTHg70xA2JbWDokIxybt-11" value="Does player&amp;nbsp;have more rolls" style="rhombus;whiteSpace=wrap;html=1;rounded=1;strokeColor=#82b366;fillColor=#d5e8d4;" vertex="1" parent="WIyWlLk6GJQsqaUBKTNV-1">
          <mxGeometry x="558" y="600" width="112" height="100" as="geometry" />
        </mxCell>
        <mxCell id="OTHg70xA2JbWDokIxybt-23" style="edgeStyle=orthogonalEdgeStyle;rounded=0;orthogonalLoop=1;jettySize=auto;html=1;entryX=1;entryY=0.5;entryDx=0;entryDy=0;" edge="1" parent="WIyWlLk6GJQsqaUBKTNV-1" source="OTHg70xA2JbWDokIxybt-21" target="OTHg70xA2JbWDokIxybt-9">
          <mxGeometry relative="1" as="geometry">
            <Array as="points">
              <mxPoint x="810" y="510" />
            </Array>
          </mxGeometry>
        </mxCell>
        <mxCell id="OTHg70xA2JbWDokIxybt-21" value="Ask which&lt;br&gt;dice to save" style="shape=parallelogram;perimeter=parallelogramPerimeter;whiteSpace=wrap;html=1;fixedSize=1;rounded=1;strokeColor=#82b366;fillColor=#d5e8d4;" vertex="1" parent="WIyWlLk6GJQsqaUBKTNV-1">
          <mxGeometry x="746" y="620" width="120" height="60" as="geometry" />
        </mxCell>
        <mxCell id="OTHg70xA2JbWDokIxybt-31" value="" style="endArrow=classic;html=1;exitX=1;exitY=0.5;exitDx=0;exitDy=0;" edge="1" parent="WIyWlLk6GJQsqaUBKTNV-1" source="OTHg70xA2JbWDokIxybt-11" target="OTHg70xA2JbWDokIxybt-21">
          <mxGeometry relative="1" as="geometry">
            <mxPoint x="660" y="610" as="sourcePoint" />
            <mxPoint x="760" y="610" as="targetPoint" />
          </mxGeometry>
        </mxCell>
        <mxCell id="OTHg70xA2JbWDokIxybt-32" value="Yes" style="edgeLabel;resizable=0;html=1;align=center;verticalAlign=middle;" connectable="0" vertex="1" parent="OTHg70xA2JbWDokIxybt-31">
          <mxGeometry relative="1" as="geometry" />
        </mxCell>
        <mxCell id="OTHg70xA2JbWDokIxybt-33" value="" style="endArrow=classic;html=1;exitX=0.5;exitY=1;exitDx=0;exitDy=0;" edge="1" parent="WIyWlLk6GJQsqaUBKTNV-1" source="OTHg70xA2JbWDokIxybt-11">
          <mxGeometry relative="1" as="geometry">
            <mxPoint x="570" y="750" as="sourcePoint" />
            <mxPoint x="614" y="770" as="targetPoint" />
          </mxGeometry>
        </mxCell>
        <mxCell id="OTHg70xA2JbWDokIxybt-34" value="No" style="edgeLabel;resizable=0;html=1;align=center;verticalAlign=middle;" connectable="0" vertex="1" parent="OTHg70xA2JbWDokIxybt-33">
          <mxGeometry relative="1" as="geometry" />
        </mxCell>
        <mxCell id="OTHg70xA2JbWDokIxybt-37" value="" style="edgeStyle=orthogonalEdgeStyle;rounded=0;orthogonalLoop=1;jettySize=auto;html=1;" edge="1" parent="WIyWlLk6GJQsqaUBKTNV-1" source="OTHg70xA2JbWDokIxybt-35" target="OTHg70xA2JbWDokIxybt-36">
          <mxGeometry relative="1" as="geometry" />
        </mxCell>
        <mxCell id="OTHg70xA2JbWDokIxybt-35" value="Ask where to put&lt;br&gt;score" style="shape=parallelogram;perimeter=parallelogramPerimeter;whiteSpace=wrap;html=1;fixedSize=1;rounded=1;strokeColor=#82b366;fillColor=#d5e8d4;" vertex="1" parent="WIyWlLk6GJQsqaUBKTNV-1">
          <mxGeometry x="554" y="770" width="120" height="60" as="geometry" />
        </mxCell>
        <mxCell id="OTHg70xA2JbWDokIxybt-36" value="Does the&lt;br&gt;game have&lt;br&gt;more turns" style="rhombus;whiteSpace=wrap;html=1;rounded=1;strokeColor=#82b366;fillColor=#d5e8d4;" vertex="1" parent="WIyWlLk6GJQsqaUBKTNV-1">
          <mxGeometry x="358" y="750" width="112" height="100" as="geometry" />
        </mxCell>
        <mxCell id="OTHg70xA2JbWDokIxybt-38" value="" style="endArrow=classic;html=1;entryX=0;entryY=0.5;entryDx=0;entryDy=0;exitX=0.5;exitY=0;exitDx=0;exitDy=0;" edge="1" parent="WIyWlLk6GJQsqaUBKTNV-1" source="OTHg70xA2JbWDokIxybt-36" target="OTHg70xA2JbWDokIxybt-9">
          <mxGeometry relative="1" as="geometry">
            <mxPoint x="430" y="720" as="sourcePoint" />
            <mxPoint x="490" y="630" as="targetPoint" />
            <Array as="points">
              <mxPoint x="414" y="650" />
              <mxPoint x="510" y="650" />
              <mxPoint x="510" y="510" />
            </Array>
          </mxGeometry>
        </mxCell>
        <mxCell id="OTHg70xA2JbWDokIxybt-39" value="Yes" style="edgeLabel;resizable=0;html=1;align=center;verticalAlign=middle;" connectable="0" vertex="1" parent="OTHg70xA2JbWDokIxybt-38">
          <mxGeometry relative="1" as="geometry">
            <mxPoint x="-44.34" as="offset" />
          </mxGeometry>
        </mxCell>
        <mxCell id="OTHg70xA2JbWDokIxybt-40" value="" style="endArrow=classic;html=1;exitX=0.5;exitY=1;exitDx=0;exitDy=0;" edge="1" parent="WIyWlLk6GJQsqaUBKTNV-1" source="OTHg70xA2JbWDokIxybt-36">
          <mxGeometry relative="1" as="geometry">
            <mxPoint x="430" y="920" as="sourcePoint" />
            <mxPoint x="414" y="950" as="targetPoint" />
          </mxGeometry>
        </mxCell>
        <mxCell id="OTHg70xA2JbWDokIxybt-41" value="No" style="edgeLabel;resizable=0;html=1;align=center;verticalAlign=middle;" connectable="0" vertex="1" parent="OTHg70xA2JbWDokIxybt-40">
          <mxGeometry relative="1" as="geometry" />
        </mxCell>
        <mxCell id="OTHg70xA2JbWDokIxybt-44" value="" style="edgeStyle=orthogonalEdgeStyle;rounded=0;orthogonalLoop=1;jettySize=auto;html=1;" edge="1" parent="WIyWlLk6GJQsqaUBKTNV-1" source="OTHg70xA2JbWDokIxybt-42" target="OTHg70xA2JbWDokIxybt-43">
          <mxGeometry relative="1" as="geometry" />
        </mxCell>
        <mxCell id="OTHg70xA2JbWDokIxybt-42" value="Summarize score" style="rounded=1;whiteSpace=wrap;html=1;fillColor=#d5e8d4;strokeColor=#82b366;" vertex="1" parent="WIyWlLk6GJQsqaUBKTNV-1">
          <mxGeometry x="354" y="950" width="120" height="60" as="geometry" />
        </mxCell>
        <mxCell id="OTHg70xA2JbWDokIxybt-48" value="" style="edgeStyle=orthogonalEdgeStyle;rounded=0;orthogonalLoop=1;jettySize=auto;html=1;" edge="1" parent="WIyWlLk6GJQsqaUBKTNV-1" source="OTHg70xA2JbWDokIxybt-43" target="OTHg70xA2JbWDokIxybt-47">
          <mxGeometry relative="1" as="geometry" />
        </mxCell>
        <mxCell id="OTHg70xA2JbWDokIxybt-43" value="Play again?" style="rhombus;whiteSpace=wrap;html=1;rounded=1;strokeColor=#82b366;fillColor=#d5e8d4;" vertex="1" parent="WIyWlLk6GJQsqaUBKTNV-1">
          <mxGeometry x="374" y="1080" width="80" height="80" as="geometry" />
        </mxCell>
        <mxCell id="OTHg70xA2JbWDokIxybt-45" value="" style="endArrow=classic;html=1;exitX=0;exitY=0.5;exitDx=0;exitDy=0;entryX=0;entryY=0.5;entryDx=0;entryDy=0;" edge="1" parent="WIyWlLk6GJQsqaUBKTNV-1" source="OTHg70xA2JbWDokIxybt-43" target="OTHg70xA2JbWDokIxybt-1">
          <mxGeometry relative="1" as="geometry">
            <mxPoint x="170" y="940" as="sourcePoint" />
            <mxPoint x="290" y="230" as="targetPoint" />
            <Array as="points">
              <mxPoint x="280" y="1120" />
              <mxPoint x="280" y="230" />
            </Array>
          </mxGeometry>
        </mxCell>
        <mxCell id="OTHg70xA2JbWDokIxybt-46" value="Yes" style="edgeLabel;resizable=0;html=1;align=center;verticalAlign=middle;" connectable="0" vertex="1" parent="OTHg70xA2JbWDokIxybt-45">
          <mxGeometry relative="1" as="geometry" />
        </mxCell>
        <mxCell id="OTHg70xA2JbWDokIxybt-47" value="End" style="ellipse;whiteSpace=wrap;html=1;rounded=1;strokeColor=#82b366;fillColor=#d5e8d4;" vertex="1" parent="WIyWlLk6GJQsqaUBKTNV-1">
          <mxGeometry x="354" y="1240" width="120" height="80" as="geometry" />
        </mxCell>
      </root>
    </mxGraphModel>
  </diagram>
</mxfile>
